#!OML:ASF H:\ManfredETheater\Project 1\Capture day 1\Session 1\subject.ASF
:FULLY-SPECIFIED
:DEGREES
296
root 10.0984 16.9805 -27.9908 -138.387 5.57978 202.076
lowerback 46.4069 5.76023 -3.98289
upperback 12.4551 9.66027 2.06653
thorax -7.74442 5.72146 -0.15988
lowerneck -2.6343 -5.78639 -1.53727
upperneck -27.4027 -4.77666 6.39609
head -7.78372 -1.34882 2.48253
rclavicle -7.4743e-014 1.41634e-014
rhumerus -3.05583 -6.72059 -72.2981
rradius 18.3836
rwrist 12.9148
rhand -17.5516 -17.1787
rfingers 7.12502
rthumb 8.70309 -46.9793
lclavicle -7.4743e-014 1.41634e-014
lhumerus -23.6493 8.63945 86.1607
lradius 33.2442
lwrist 12.4287
lhand -34.8853 -2.57441
lfingers 7.12502
lthumb -8.03405 27.2529
rfemur 1.25678 -10.5665 31.5843
rtibia 18.9689
rfoot 30.1368 -14.9867
rtoes -19.3234
lfemur -84.1224 5.14057 -21.1559
ltibia 60.4811
lfoot -15.4308 -11.267
ltoes -5.81353
297
root 10.3264 16.8791 -28.5072 -139.174 5.16472 203.161
lowerback 45.7677 5.71505 -3.36628
upperback 12.4293 9.92576 2.22676
thorax -7.60325 5.86459 -0.368198
lowerneck -2.48718 -5.59848 -2.06309
upperneck -27.0016 -4.54206 6.54071
head -7.65913 -1.23434 2.60608
rclavicle 6.20208e-014 1.44367e-014
rhumerus -6.39089 -8.09389 -73.1439
rradius 18.8222
rwrist 11.5769
rhand -19.8531 -18.7745
rfingers 7.12502
rthumb 6.4816 -48.6553
lclavicle 6.20208e-014 1.44367e-014
lhumerus -26.6987 8.90237 85.4023
lradius 35.131
lwrist 13.0406
lhand -34.5399 -3.28272
lfingers 7.12502
lthumb -7.70068 26.5571
rfemur 4.43794 -9.01269 31.3584
rtibia 19.6636
rfoot 30.4128 -14.8841
rtoes -17.5113
lfemur -84.1727 6.06367 -22.1365
ltibia 56.2002
lfoot -12.0795 -12.4869
ltoes -1.89613
298
root 10.5515 16.7583 -29.0254 -140.001 5.08747 204.394
lowerback 45.076 5.73639 -2.9661
upperback 12.3627 10.1319 2.35115
thorax -7.49889 5.97049 -0.480142
lowerneck -2.42476 -5.28704 -2.65453
upperneck -26.4335 -4.15791 6.6689
head -7.47247 -1.05429 2.7241
rclavicle -9.70069e-014 2.23943e-014
rhumerus -9.64277 -8.78229 -73.9788
rradius 19.4716
rwrist 10.181
rhand -21.9194 -20.0961
rfingers 7.12502
rthumb 4.48664 -50.0286
lclavicle -9.70069e-014 2.23943e-014
lhumerus -30.0592 9.3639 84.437
lradius 37.1472
lwrist 13.4121
lhand -34.0189 -4.04769
lfingers 7.12502
lthumb -7.1978 25.8099
rfemur 7.03807 -7.16404 31.0988
rtibia 21.6934
rfoot 30.2081 -14.1093
rtoes -16.6169
lfemur -84.045 7.16744 -22.8848
ltibia 52.6746
lfoot -8.73443 -13.439
ltoes 2.9956
299
root 10.7695 16.6206 -29.5445 -140.79 5.33547 205.734
lowerback 44.2759 5.79798 -2.72955
upperback 12.2414 10.2652 2.43536
thorax -7.42825 6.03009 -0.517104
lowerneck -2.48049 -4.86617 -3.28058
upperneck -25.6493 -3.65137 6.76652
head -7.20517 -0.82492 2.82754
rclavicle 3.81667e-014 7.90169e-015
rhumerus -12.7887 -8.96503 -74.8186
rradius 20.235
rwrist 8.89823
rhand -23.5394 -21.0397
rfingers 7.12502
rthumb 2.92219 -50.9994
lclavicle 3.81667e-014 7.90169e-015
lhumerus -33.683 10.0114 83.2924
lradius 39.18
lwrist 13.6344
lhand -33.3639 -4.85663
lfingers 7.12502
lthumb -6.56556 25.0216
rfemur 9.12019 -5.07385 30.7841
rtibia 24.6633
rfoot 29.7149 -12.7923
rtoes -16.6163
lfemur -83.849 8.39113 -23.3574
ltibia 49.9869
lfoot -6.15102 -13.5248
ltoes 6.51957
300
root 10.9793 16.4441 -30.0508 -141.453 5.80829 207.057
lowerback 43.3283 5.81501 -2.52929
upperback 12.0508 10.2758 2.47484
thorax -7.38072 6.02021 -0.522435
lowerneck -2.68852 -4.3635 -3.91109
upperneck -24.6337 -3.06122 6.82313
head -6.84916 -0.564051 2.91039
rclavicle -3.81667e-014 -3.00165e-014
rhumerus -15.8256 -8.77674 -75.6202
rradius 21.0562
rwrist 7.79638
rhand -24.567 -21.5635
rfingers 7.12502
rthumb 1.92972 -51.5345
lclavicle -3.81667e-014 -3.00165e-014
lhumerus -37.4657 10.7617 82.0422
lradius 41.1059
lwrist 13.819
lhand -32.6469 -5.63964
lfingers 7.12502
lthumb -5.87331 24.259
rfemur 10.4909 -2.87172 30.3556
rtibia 28.7208
rfoot 28.8779 -11.2003
rtoes -17.0085
lfemur -83.7898 9.50436 -23.5477
ltibia 48.5015
lfoot -4.28277 -13.1247
ltoes 10.8996
301
root 11.1579 16.3193 -30.5746 -141.983 6.43327 208.235
lowerback 42.3073 5.75772 -2.32617
upperback 11.7803 10.1488 2.4685
thorax -7.37991 5.93407 -0.518252
lowerneck -3.07039 -3.81597 -4.50523
upperneck -23.4023 -2.43021 6.8455
head -6.40764 -0.291181 2.97196
rclavicle -3.18055e-014 -2.54444e-014
rhumerus -18.7477 -8.27778 -76.3525
rradius 21.9099
rwrist 6.81067
rhand -25.0079 -21.6813
rfingers 7.12502
rthumb 1.50393 -51.6557
lclavicle -3.18055e-014 -2.54444e-014
lhumerus -41.2674 11.4882 80.771
lradius 42.8106
lwrist 14.0648
lhand -31.9867 -6.31749
lfingers 7.12502
lthumb -5.23584 23.5978
rfemur 11.0336 -0.67877 29.7291
rtibia 33.583
rfoot 28.0856 -9.61826
rtoes -17.5239
lfemur -83.4556 10.4201 -23.4288
ltibia 48.0992
lfoot -3.62789 -11.9983
ltoes 15.7225
302
root 11.3243 16.1715 -31.0804 -142.412 7.17766 209.11
lowerback 41.3156 5.65857 -2.22754
upperback 11.4252 9.88822 2.42283
thorax -7.47139 5.77138 -0.457614
lowerneck -3.57125 -3.24867 -5.00431
upperneck -22.0538 -1.78245 6.82666
head -5.92352 -0.0153669 3.00564
rclavicle 0 -3.57812e-015
rhumerus -21.5413 -7.52764 -77.0032
rradius 22.7892
rwrist 5.89798
rhand -24.9136 -21.4343
rfingers 7.12502
rthumb 1.59502 -51.4081
lclavicle 0 -3.57812e-015
lhumerus -44.9253 12.0823 79.569
lradius 44.1909
lwrist 14.4265
lhand -31.4777 -6.81104
lfingers 7.12502
lthumb -4.74443 23.1158
rfemur 10.8806 1.43631 28.7691
rtibia 39.2006
rfoot 27.2505 -8.38886
rtoes -17.8395
lfemur -83.2661 10.972 -23.1482
ltibia 48.977
lfoot -3.88663 -10.1091
ltoes 20.5112
303
root 11.4748 16.0352 -31.5763 -142.795 7.99159 209.555
lowerback 40.4506 5.54517 -2.32598
upperback 10.9964 9.50696 2.33756
thorax -7.68285 5.54048 -0.308251
lowerneck -4.13587 -2.69805 -5.37515
upperneck -20.7092 -1.15024 6.79469
head -5.4413 0.251545 3.01941
rclavicle -3.18055e-015 -2.0276e-014
rhumerus -24.1828 -6.57467 -77.5844
rradius 23.703
rwrist 5.00689
rhand -24.3609 -20.9061
rfingers 7.12502
rthumb 2.12882 -50.8753
lclavicle -3.18055e-015 -2.0276e-014
lhumerus -48.2616 12.4304 78.5255
lradius 45.1769
lwrist 14.9114
lhand -31.1946 -7.06055
lfingers 7.12502
lthumb -4.47104 22.8723
rfemur 10.0701 3.3395 27.3863
rtibia 45.2807
rfoot 26.6756 -7.51744
rtoes -18.0122
lfemur -82.9901 11.1763 -22.9337
ltibia 50.8011
lfoot -4.8141 -7.732
ltoes 25.1894
304
root 11.6163 15.9153 -32.0596 -143.193 8.86824 209.541
lowerback 39.7776 5.4724 -2.741
upperback 10.5315 9.04709 2.21466
thorax -8.0073 5.26753 -0.0263349
lowerneck -4.73154 -2.19189 -5.58619
upperneck -19.4993 -0.556088 6.75173
head -5.00315 0.504993 3.01086
rclavicle -8.5875e-014 8.34896e-015
rhumerus -26.6164 -5.50838 -78.1288
rradius 24.6557
rwrist 4.17754
rhand -23.4577 -20.1651
rfingers 7.12502
rthumb 3.00105 -50.1237
lclavicle -8.5875e-014 8.34896e-015
lhumerus -51.1423 12.4345 77.7185
lradius 45.7909
lwrist 15.5622
lhand -31.1499 -7.04454
lfingers 7.12502
lthumb -4.42787 22.8892
rfemur 8.62788 5.01454 25.5781
rtibia 51.825
rfoot 26.3026 -7.14564
rtoes -17.6791
lfemur -82.6463 11.1674 -22.9983
ltibia 53.4208
lfoot -6.2524 -5.193
ltoes 29.4963
305
root 11.7568 15.8133 -32.5275 -143.606 9.76562 209.147
lowerback 39.2658 5.46801 -3.47244
upperback 10.0598 8.55742 2.05947
thorax -8.40363 4.98348 0.382078
lowerneck -5.26248 -1.74755 -5.62628
upperneck -18.5658 -0.0137239 6.71552
head -4.6633 0.74089 2.98459
rclavicle 4.45278e-014 1.74931e-014
rhumerus -28.8328 -4.38694 -78.6809
rradius 25.6703
rwrist 3.43115
rhand -22.3447 -19.3125
rfingers 7.12502
rthumb 4.07587 -49.2532
lclavicle 4.45278e-014 1.74931e-014
lhumerus -53.483 12.0168 77.2001
lradius 46.0862
lwrist 16.3484
lhand -31.3055 -6.75541
lfingers 7.12502
lthumb -4.57816 23.1751
rfemur 6.63474 6.4637 23.4611
rtibia 58.59
rfoot 26.1562 -7.26497
rtoes -17.1751
lfemur -82.231 11.0941 -23.378
ltibia 56.4459
lfoot -8.02286 -2.8462
ltoes 33.0324
306
root 11.9029 15.7309 -32.9802 -143.96 10.6703 208.524
lowerback 38.7835 5.55254 -4.47248
upperback 9.61115 8.0907 1.87692
thorax -8.79132 4.71894 0.891769
lowerneck -5.66678 -1.37135 -5.50517
upperneck -18.0122 0.476071 6.69535
head -4.45933 0.961466 2.9435
rclavicle -2.54444e-014 -7.23576e-014
rhumerus -30.8274 -3.28068 -79.2766
rradius 26.7647
rwrist 2.80255
rhand -21.166 -18.4273
rfingers 7.12502
rthumb 5.21409 -48.3432
lclavicle -2.54444e-014 -7.23576e-014
lhumerus -55.2498 11.1228 77.0137
lradius 46.1592
lwrist 17.2565
lhand -31.5647 -6.21937
lfingers 7.12502
lthumb -4.8284 23.7056
rfemur 4.07116 7.74462 21.1838
rtibia 65.4315
rfoot 26.1067 -7.83113
rtoes -16.3946
lfemur -81.798 11.1314 -23.9952
ltibia 59.5889
lfoot -10.0833 -0.94716
ltoes 35.364
307
root 12.0563 15.6691 -33.4198 -144.099 11.5271 207.852
lowerback 38.1208 5.6958 -5.57839
upperback 9.19985 7.68124 1.67709
thorax -9.07261 4.48991 1.43442
lowerneck -5.91956 -1.06924 -5.24964
upperneck -17.8758 0.907892 6.68214
head -4.40376 1.16556 2.88671
rclavicle 2.54444e-014 -8.74653e-015
rhumerus -32.6195 -2.23737 -79.9359
rradius 27.9599
rwrist 2.29223
rhand -20.0916 -17.6011
rfingers 7.12502
rthumb 6.25141 -47.4889
lclavicle 2.54444e-014 -8.74653e-015
lhumerus -56.4572 9.71095 77.1903
lradius 46.1124
lwrist 18.2141
lhand -31.8431 -5.50903
lfingers 7.12502
lthumb -5.09723 24.4097
rfemur 0.832984 8.89266 18.9278
rtibia 72.2062
rfoot 26.0121 -8.73845
rtoes -15.398
lfemur -81.4684 11.3793 -24.7045
ltibia 62.5703
lfoot -12.3272 0.344385
ltoes 36.4745
